<svg width="17" height="17" viewBox="0 0 17 17" fill="none" xmlns="http://www.w3.org/2000/svg">
<path d="M16.2001 10.8652H0.799866C0.634255 10.8652 0.5 10.9995 0.5 11.1651V11.5362C0.5 11.5878 0.513208 11.6386 0.53898 11.6833C1.80573 13.8809 4.0887 15.5406 5.14575 16.14C5.18982 16.165 5.23793 16.1771 5.2886 16.1771H11.6851C11.7383 16.1771 11.7912 16.1627 11.837 16.1356C15.0854 14.2155 16.5 11.8701 16.5 11.6149V11.1651C16.5 10.9995 16.3657 10.8652 16.2001 10.8652Z" fill="#0EA47A"/>
<path d="M9.56032 5.93914C9.44037 6.19616 8.5679 6.14619 8.14666 6.08907C7.95389 6.06702 7.99673 5.57501 7.99673 5.31798C7.99673 5.06096 8.33944 4.82535 8.98201 4.8896C9.62458 4.95386 9.71025 5.61785 9.56032 5.93914Z" fill="#0EA47A"/>
<path d="M15.3863 8.03819C15.3189 8.18986 14.6659 8.50587 14.3319 8.65211C14.3212 8.65681 14.3087 8.65657 14.298 8.65192C13.3564 8.24564 13.7588 7.69393 13.8227 7.43846C13.887 7.18143 14.1012 6.60312 14.8294 6.68879C15.5576 6.77447 15.472 7.84542 15.3863 8.03819Z" fill="#0EA47A"/>
<path d="M15.5148 9.34475C15.2373 9.54061 14.9638 9.98522 14.8458 10.2121C14.8362 10.2307 14.8419 10.2536 14.8598 10.2646C15.2417 10.4983 15.7402 10.0432 16.1574 9.73029C16.5858 9.40901 16.5001 8.87353 16.4144 8.80927C16.3287 8.74502 15.8789 9.08772 15.5148 9.34475Z" fill="#0EA47A"/>
<path d="M10.9526 10.0944C10.717 9.95876 10.2886 9.58893 10.46 9.19482C10.6191 8.82883 11.0491 8.93939 11.2869 9.05995C11.3127 9.07304 11.3447 9.059 11.3521 9.03104C11.4315 8.73403 11.6541 8.24167 12.0236 8.2738C12.4783 8.31334 12.7323 8.79081 12.6003 9.20095C12.5883 9.23801 12.6249 9.27791 12.6619 9.2656C13.0255 9.14445 13.6106 9.02182 13.6728 9.30191C13.7585 9.68745 13.4801 9.98732 13.0731 10.2443M12.2378 9.94448C12.0807 9.8945 11.7237 9.85452 11.5524 10.0944M11.8951 6.9244C12.1164 6.71735 12.559 6.20901 12.559 5.83203M7.56842 8.14528C7.36897 8.1619 7.08623 7.74995 6.95866 7.52322C6.95149 7.51046 6.95147 7.49494 6.95872 7.48223C7.08832 7.25499 7.40733 6.83392 7.73977 6.8173C8.16815 6.79588 8.31808 7.18142 8.36092 7.5027C8.40376 7.82399 7.82544 8.12386 7.56842 8.14528ZM8.23241 8.70217C8.13819 8.90317 7.93456 9.29425 7.79362 9.43207C7.77105 9.45413 7.76864 9.4954 7.79436 9.51369C8.04152 9.68945 8.53717 9.95396 8.91781 9.8588C9.31455 9.75962 9.43752 9.24048 9.45212 8.96679C9.45305 8.94924 9.44287 8.93331 9.42666 8.92651C9.0502 8.76838 8.32441 8.51813 8.23241 8.70217ZM10.2886 6.60311C10.5236 6.53902 11.1422 6.64539 10.9541 7.24101C10.9532 7.24402 10.9518 7.24715 10.9501 7.24986C10.6133 7.8155 9.92336 7.56965 9.60098 7.36517C9.58882 7.35746 9.58176 7.34367 9.582 7.32927C9.59302 6.68826 10.0558 6.6666 10.2886 6.60311Z" stroke="#0EA47A" stroke-width="0.342704" stroke-linecap="round" stroke-linejoin="round"/>
<path d="M4.59083 9.00192C4.48373 8.63066 4.3595 7.88385 4.71934 7.86671C5.03474 7.8517 5.21959 8.17564 5.29409 8.40012C5.30552 8.43456 5.35268 8.44436 5.37593 8.4165C5.57349 8.17984 5.92553 7.86385 6.11157 8.0809C6.36329 8.37457 6.34794 8.62716 6.1259 9.20079C6.11789 9.22148 6.12663 9.24501 6.14624 9.25536C6.38316 9.38044 6.79698 9.66203 6.79698 9.92294C6.79698 10.2656 6.06873 10.3727 5.98306 10.3299M5.55468 9.64449C5.5047 9.52312 5.3105 9.30607 4.93352 9.40888" stroke="#0EA47A" stroke-width="0.342704" stroke-linecap="round" stroke-linejoin="round"/>
<path d="M1.03566 2.61909C0.763906 0.462066 0.918642 0.0488696 1.03263 0.111296C1.03461 0.112379 1.03628 0.113601 1.03797 0.1151C1.56693 0.585302 2.23788 4.43645 2.51067 6.32593C2.51255 6.33896 2.52048 6.34996 2.53187 6.35657C3.37369 6.84506 3.60639 7.28996 3.67019 7.50262C3.73445 7.71681 3.41316 10.3085 3.41316 10.18C3.41316 10.0515 3.07046 7.97384 2.83485 8.12377C2.67537 8.22526 2.65798 9.23348 2.67371 9.95224C2.67481 10.0029 2.59773 10.0154 2.58282 9.96694C2.384 9.32128 2.07854 8.43079 1.89936 8.25348C1.88426 8.23854 1.86104 8.24295 1.85071 8.26151C1.6988 8.53471 1.76164 9.50508 1.83478 10.1625C1.84026 10.2117 1.77103 10.2309 1.75142 10.1855C1.41295 9.40101 0.90714 8.1335 0.90714 7.73823C0.90714 7.3037 1.38257 6.76594 1.63787 6.53432C1.64956 6.52372 1.65467 6.5084 1.65113 6.49302C1.55396 6.07191 1.30441 4.75235 1.03566 2.61909Z" fill="#0EA47A"/>
</svg>