<svg width="971" height="91" viewBox="0 0 971 91" fill="none" xmlns="http://www.w3.org/2000/svg">
<path d="M0.75 18.858V1.72727H74.5142V18.858H48.0511V89H27.2557V18.858H0.75ZM92.7955 89H70.125L99.571 1.72727H127.653L157.099 89H134.429L113.932 23.7159H113.25L92.7955 89ZM89.7699 54.6534H137.156V70.6761H89.7699V54.6534ZM210.974 27.892C210.69 24.767 209.425 22.3381 207.181 20.6051C204.965 18.8438 201.798 17.9631 197.678 17.9631C194.951 17.9631 192.678 18.3182 190.86 19.0284C189.042 19.7386 187.678 20.7188 186.769 21.9688C185.86 23.1903 185.391 24.5966 185.363 26.1875C185.306 27.4943 185.562 28.6449 186.13 29.6392C186.727 30.6335 187.579 31.5142 188.687 32.2812C189.823 33.0199 191.187 33.6733 192.778 34.2415C194.369 34.8097 196.158 35.3068 198.147 35.733L205.647 37.4375C209.965 38.375 213.772 39.625 217.067 41.1875C220.391 42.75 223.175 44.6108 225.42 46.7699C227.692 48.929 229.411 51.4148 230.576 54.2273C231.741 57.0398 232.337 60.1932 232.366 63.6875C232.337 69.1989 230.945 73.929 228.19 77.8778C225.434 81.8267 221.471 84.8523 216.3 86.9545C211.158 89.0568 204.951 90.108 197.678 90.108C190.377 90.108 184.013 89.0142 178.587 86.8267C173.161 84.6392 168.942 81.3153 165.931 76.8551C162.92 72.3949 161.371 66.7557 161.286 59.9375H181.485C181.656 62.75 182.408 65.0938 183.744 66.9688C185.079 68.8438 186.911 70.2642 189.241 71.2301C191.599 72.196 194.326 72.679 197.423 72.679C200.263 72.679 202.678 72.2955 204.667 71.5284C206.684 70.7614 208.232 69.696 209.312 68.3324C210.391 66.9687 210.945 65.4062 210.974 63.6449C210.945 61.9972 210.434 60.5909 209.44 59.4261C208.445 58.233 206.911 57.2102 204.837 56.358C202.792 55.4773 200.178 54.6676 196.996 53.929L187.877 51.7983C180.32 50.0653 174.369 47.267 170.022 43.4034C165.675 39.5114 163.516 34.2557 163.545 27.6364C163.516 22.2386 164.965 17.5085 167.891 13.446C170.817 9.38352 174.866 6.21591 180.036 3.94318C185.207 1.67045 191.102 0.534088 197.721 0.534088C204.482 0.534088 210.349 1.68466 215.32 3.98579C220.32 6.25852 224.198 9.45455 226.954 13.5739C229.71 17.6932 231.116 22.4659 231.173 27.892H210.974ZM240.164 18.858V1.72727H313.928V18.858H287.465V89H266.67V18.858H240.164ZM324.23 89V1.72727H385.082V18.858H345.324V36.7557H381.972V53.929H345.324V71.8693H385.082V89H324.23ZM506.446 45.3636C506.446 54.9659 504.599 63.1051 500.906 69.7812C497.213 76.4574 492.213 81.5284 485.906 84.9943C479.628 88.4602 472.582 90.1932 464.77 90.1932C456.929 90.1932 449.869 88.446 443.591 84.9517C437.313 81.4574 432.327 76.3864 428.634 69.7386C424.969 63.0625 423.136 54.9375 423.136 45.3636C423.136 35.7614 424.969 27.6222 428.634 20.946C432.327 14.2699 437.313 9.19886 443.591 5.73295C449.869 2.26704 456.929 0.534088 464.77 0.534088C472.582 0.534088 479.628 2.26704 485.906 5.73295C492.213 9.19886 497.213 14.2699 500.906 20.946C504.599 27.6222 506.446 35.7614 506.446 45.3636ZM484.884 45.3636C484.884 39.6818 484.074 34.8807 482.455 30.9602C480.864 27.0398 478.563 24.071 475.551 22.054C472.568 20.0369 468.974 19.0284 464.77 19.0284C460.594 19.0284 457 20.0369 453.989 22.054C450.977 24.071 448.662 27.0398 447.043 30.9602C445.452 34.8807 444.656 39.6818 444.656 45.3636C444.656 51.0455 445.452 55.8466 447.043 59.767C448.662 63.6875 450.977 66.6562 453.989 68.6733C457 70.6903 460.594 71.6989 464.77 71.6989C468.974 71.6989 472.568 70.6903 475.551 68.6733C478.563 66.6562 480.864 63.6875 482.455 59.767C484.074 55.8466 484.884 51.0455 484.884 45.3636ZM518.761 89V1.72727H578.335V18.858H539.855V36.7557H574.543V53.929H539.855V89H518.761ZM614.738 89V1.72727H635.832V36.7557H670.221V1.72727H691.272V89H670.221V53.929H635.832V89H614.738ZM786.876 45.3636C786.876 54.9659 785.029 63.1051 781.336 69.7812C777.643 76.4574 772.643 81.5284 766.336 84.9943C760.058 88.4602 753.012 90.1932 745.2 90.1932C737.359 90.1932 730.299 88.446 724.021 84.9517C717.742 81.4574 712.756 76.3864 709.063 69.7386C705.398 63.0625 703.566 54.9375 703.566 45.3636C703.566 35.7614 705.398 27.6222 709.063 20.946C712.756 14.2699 717.742 9.19886 724.021 5.73295C730.299 2.26704 737.359 0.534088 745.2 0.534088C753.012 0.534088 760.058 2.26704 766.336 5.73295C772.643 9.19886 777.643 14.2699 781.336 20.946C785.029 27.6222 786.876 35.7614 786.876 45.3636ZM765.313 45.3636C765.313 39.6818 764.504 34.8807 762.884 30.9602C761.293 27.0398 758.992 24.071 755.981 22.054C752.998 20.0369 749.404 19.0284 745.2 19.0284C741.023 19.0284 737.43 20.0369 734.418 22.054C731.407 24.071 729.092 27.0398 727.472 30.9602C725.881 34.8807 725.086 39.6818 725.086 45.3636C725.086 51.0455 725.881 55.8466 727.472 59.767C729.092 63.6875 731.407 66.6562 734.418 68.6733C737.43 70.6903 741.023 71.6989 745.2 71.6989C749.404 71.6989 752.998 70.6903 755.981 68.6733C758.992 66.6562 761.293 63.6875 762.884 59.767C764.504 55.8466 765.313 51.0455 765.313 45.3636ZM799.191 1.72727H825.313L847.472 55.7614H848.495L870.654 1.72727H896.776V89H876.237V35.392H875.512L854.546 88.446H841.421L820.455 35.0938H819.731V89H799.191V1.72727ZM909.933 89V1.72727H970.786V18.858H931.027V36.7557H967.675V53.929H931.027V71.8693H970.786V89H909.933Z" fill="#29E981"/>
</svg>
